<?xml version="1.0" encoding="UTF-8"?>
<svg width="32" height="32" viewBox="0 0 32 32" fill="none" xmlns="http://www.w3.org/2000/svg">
    <!-- Körper (gelb-orange) -->
    <path d="M16 24C20.4183 24 24 20.4183 24 16C24 11.5817 20.4183 8 16 8C11.5817 8 8 11.5817 8 16C8 20.4183 11.5817 24 16 24Z" fill="#FFA000"/>
    
    <!-- Streifen (schwarz) -->
    <path d="M14 12H18V14H14V12Z" fill="#000000"/>
    <path d="M13 16H19V18H13V16Z" fill="#000000"/>
    <path d="M14 20H18V22H14V20Z" fill="#000000"/>
    
    <!-- Flügel (weiß mit grauem Rand) -->
    <path d="M22 12C24.2091 12 26 10.2091 26 8C26 5.79086 24.2091 4 22 4C19.7909 4 18 5.79086 18 8C18 10.2091 19.7909 12 22 12Z" fill="#FFFFFF" stroke="#CCCCCC"/>
    <path d="M10 12C12.2091 12 14 10.2091 14 8C14 5.79086 12.2091 4 10 4C7.79086 4 6 5.79086 6 8C6 10.2091 7.79086 12 10 12Z" fill="#FFFFFF" stroke="#CCCCCC"/>
    
    <!-- Fühler (schwarz) -->
    <path d="M14 8C14 8 13 6 12 4" stroke="#000000" stroke-width="1.5" stroke-linecap="round"/>
    <path d="M18 8C18 8 19 6 20 4" stroke="#000000" stroke-width="1.5" stroke-linecap="round"/>
</svg>